<?xml version="1.0" encoding="utf-8"?>
<!-- Generator: Adobe Illustrator 15.0.0, SVG Export Plug-In . SVG Version: 6.00 Build 0)  -->
<!DOCTYPE svg PUBLIC "-//W3C//DTD SVG 1.1//EN" "http://www.w3.org/Graphics/SVG/1.1/DTD/svg11.dtd">
<svg version="1.1" id="Layer_1" xmlns="http://www.w3.org/2000/svg" xmlns:xlink="http://www.w3.org/1999/xlink" x="0px" y="0px"
	  viewBox="0 0 256 256" enable-background="new 0 0 256 256" xml:space="preserve">
<g>
	<linearGradient id="SVGID_1_" gradientUnits="userSpaceOnUse" x1="-9.7021" y1="-9.7021" x2="276.2962" y2="276.2962">
		<stop  offset="0" style="stop-color:#FA6282"/>
		<stop  offset="1" style="stop-color:#FDA265"/>
	</linearGradient>
	<rect fill="url(#SVGID_1_)" width="256" height="256"/>
	<path fill="#FFFFFF" d="M109.088,98.773c1.188,31.039,4.371,59.894,9.638,87.327c-16.139-11.604-29.683-26.518-39.624-43.722
		C72.248,130.498,67.174,117.735,64,104.373c4.1-4.128,7.896-7.799,11.529-11.134c1.908-1.733,3.867-3.465,5.832-5.191
		C90.72,91.362,99.962,94.955,109.088,98.773z M184.722,96.441c-0.515-2.562-1.029-5.131-1.578-7.645
		c-1.076-4.811-2.351-9.934-3.882-15.555c-32.535-9.698-67.42-7.304-98.128,6.537c26.39,9.154,52.962,20.826,80.433,35.314
		C169.441,109.104,177.173,102.897,184.722,96.441z M116.474,102.424c0.608,13.935,1.655,27.857,3.212,41.743
		c11.756-7.496,23.298-15.36,34.547-23.653C141.855,114.076,129.276,108.021,116.474,102.424z M121.195,152.366
		c1.254,9.825,2.762,19.626,4.576,29.393c2.475,0.835,4.959,1.677,7.416,2.46c4.684,1.47,9.762,2.922,15.405,4.415
		c24.669-23.321,40.036-54.738,43.407-88.252C170.877,118.656,147.465,135.816,121.195,152.366z"/>
</g>
</svg>
